<svg width="18" height="18" viewBox="0 0 18 18" fill="none" xmlns="http://www.w3.org/2000/svg">
<mask id="mask0_0_106" style="mask-type:alpha" maskUnits="userSpaceOnUse" x="0" y="0" width="18" height="18">
<rect width="18" height="18" fill="#D9D9D9"/>
</mask>
<g mask="url(#mask0_0_106)">
<path d="M4.52864 13.125L3.19816 14.4555C3.00824 14.6454 2.7902 14.6888 2.54405 14.5856C2.29789 14.4825 2.1748 14.2966 2.1748 14.0279V3.38082C2.1748 3.04322 2.29137 2.75786 2.52449 2.52474C2.75762 2.29161 3.04298 2.17505 3.38058 2.17505H14.619C14.9566 2.17505 15.242 2.29161 15.4751 2.52474C15.7082 2.75786 15.8248 3.04322 15.8248 3.38082V11.9192C15.8248 12.2568 15.7082 12.5422 15.4751 12.7753C15.242 13.0084 14.9566 13.125 14.619 13.125H4.52864ZM3.66905 12.15H14.619C14.6767 12.15 14.7296 12.126 14.7777 12.0779C14.8257 12.0298 14.8498 11.9769 14.8498 11.9192V3.38082C14.8498 3.32312 14.8257 3.27023 14.7777 3.22214C14.7296 3.17407 14.6767 3.15003 14.619 3.15003H3.38058C3.32288 3.15003 3.26999 3.17407 3.2219 3.22214C3.17382 3.27023 3.14979 3.32312 3.14979 3.38082V12.6693L3.66905 12.15Z" fill="#2D2D39"/>
</g>
</svg>
