<svg width="20" height="20" viewBox="0 0 20 20" fill="none" xmlns="http://www.w3.org/2000/svg">
<mask id="mask0_0_244" style="mask-type:alpha" maskUnits="userSpaceOnUse" x="0" y="0" width="20" height="20">
<rect width="20" height="20" fill="#D9D9D9"/>
</mask>
<g mask="url(#mask0_0_244)">
<path d="M5.75034 17.5833C5.375 17.5833 5.05887 17.4538 4.80192 17.1948C4.54498 16.9357 4.4165 16.6187 4.4165 16.2435V3.75642C4.4165 3.38131 4.54602 3.06424 4.80505 2.80521C5.06407 2.54619 5.38114 2.41667 5.75625 2.41667H11.6473C11.8234 2.41667 11.993 2.44873 12.156 2.51284C12.319 2.57694 12.4688 2.67736 12.6056 2.81411L15.1857 5.39419C15.3224 5.53096 15.4229 5.68083 15.487 5.84382C15.5511 6.00679 15.5831 6.17636 15.5831 6.35253V16.2435C15.5831 16.6187 15.4535 16.9357 15.1943 17.1948C14.9351 17.4538 14.6179 17.5833 14.2425 17.5833H5.75034ZM11.4165 5.91342V3.49998H5.75625C5.69214 3.49998 5.63337 3.52669 5.57994 3.58011C5.52652 3.63354 5.49982 3.69231 5.49982 3.75642V16.2435C5.49982 16.3077 5.52652 16.3664 5.57994 16.4199C5.63337 16.4733 5.69214 16.5 5.75625 16.5H14.2434C14.3075 16.5 14.3663 16.4733 14.4197 16.4199C14.4731 16.3664 14.4998 16.3077 14.4998 16.2435V6.5833H12.0864C11.8953 6.5833 11.7358 6.51943 11.6081 6.39169C11.4804 6.26397 11.4165 6.10455 11.4165 5.91342Z" fill="#2D2D39"/>
</g>
</svg>
