<svg width="28" height="28" viewBox="0 0 28 28" fill="none" xmlns="http://www.w3.org/2000/svg">
<mask id="mask0_3205_2718" style="mask-type:alpha" maskUnits="userSpaceOnUse" x="0" y="0" width="28" height="28">
<rect width="28" height="28" fill="#D9D9D9"/>
</mask>
<g mask="url(#mask0_3205_2718)">
<path d="M5.02549 23.9165C4.43617 23.9165 3.93734 23.7124 3.529 23.304C3.12067 22.8957 2.9165 22.3969 2.9165 21.8075V6.19224C2.9165 5.60291 3.12067 5.10409 3.529 4.69575C3.93734 4.28742 4.43617 4.08325 5.02549 4.08325H22.9741C23.5635 4.08325 24.0623 4.28742 24.4706 4.69575C24.8789 5.10409 25.0831 5.60291 25.0831 6.19224V21.8075C25.0831 22.3969 24.8789 22.8957 24.4706 23.304C24.0623 23.7124 23.5635 23.9165 22.9741 23.9165H5.02549ZM5.02549 22.1666H22.9741C23.0639 22.1666 23.1462 22.1292 23.221 22.0544C23.2958 21.9796 23.3331 21.8973 23.3331 21.8075V6.19224C23.3331 6.10248 23.2958 6.0202 23.221 5.9454C23.1462 5.87062 23.0639 5.83322 22.9741 5.83322H5.02549C4.93573 5.83322 4.85345 5.87062 4.77865 5.9454C4.70387 6.0202 4.66647 6.10248 4.66647 6.19224V21.8075C4.66647 21.8973 4.70387 21.9796 4.77865 22.0544C4.85345 22.1292 4.93573 22.1666 5.02549 22.1666ZM8.32354 19.3845H19.6761C19.9244 19.3845 20.1323 19.3007 20.2998 19.1332C20.4673 18.9657 20.5511 18.7578 20.5511 18.5095C20.5511 18.2612 20.4673 18.0533 20.2998 17.8858C20.1323 17.7183 19.9244 17.6345 19.6761 17.6345H8.32354C8.07525 17.6345 7.86735 17.7183 7.69984 17.8858C7.53232 18.0533 7.44857 18.2612 7.44857 18.5095C7.44857 18.7578 7.53232 18.9657 7.69984 19.1332C7.86735 19.3007 8.07525 19.3845 8.32354 19.3845ZM8.32354 14.8749H10.8812C11.1295 14.8749 11.3374 14.7911 11.505 14.6236C11.6725 14.4561 11.7562 14.2482 11.7562 13.9999V9.49029C11.7562 9.242 11.6725 9.0341 11.505 8.86659C11.3374 8.69907 11.1295 8.61532 10.8812 8.61532H8.32354C8.07525 8.61532 7.86735 8.69907 7.69984 8.86659C7.53232 9.0341 7.44857 9.242 7.44857 9.49029V13.9999C7.44857 14.2482 7.53232 14.4561 7.69984 14.6236C7.86735 14.7911 8.07525 14.8749 8.32354 14.8749ZM15.1889 14.8749H19.6761C19.9244 14.8749 20.1323 14.7911 20.2998 14.6236C20.4673 14.4561 20.5511 14.2482 20.5511 13.9999C20.5511 13.7516 20.4673 13.5437 20.2998 13.3762C20.1323 13.2087 19.9244 13.1249 19.6761 13.1249H15.1889C14.9406 13.1249 14.7327 13.2087 14.5652 13.3762C14.3977 13.5437 14.3139 13.7516 14.3139 13.9999C14.3139 14.2482 14.3977 14.4561 14.5652 14.6236C14.7327 14.7911 14.9406 14.8749 15.1889 14.8749ZM15.1889 10.3653H19.6761C19.9244 10.3653 20.1323 10.2815 20.2998 10.114C20.4673 9.94647 20.5511 9.73857 20.5511 9.49029C20.5511 9.242 20.4673 9.0341 20.2998 8.86659C20.1323 8.69907 19.9244 8.61532 19.6761 8.61532H15.1889C14.9406 8.61532 14.7327 8.69907 14.5652 8.86659C14.3977 9.0341 14.3139 9.242 14.3139 9.49029C14.3139 9.73857 14.3977 9.94647 14.5652 10.114C14.7327 10.2815 14.9406 10.3653 15.1889 10.3653Z" fill="#2D2D39"/>
</g>
</svg>
