<svg width="28" height="28" viewBox="0 0 28 28" fill="none" xmlns="http://www.w3.org/2000/svg">
<mask id="mask0_3205_2724" style="mask-type:alpha" maskUnits="userSpaceOnUse" x="0" y="0" width="28" height="28">
<rect width="28" height="28" fill="#D9D9D9"/>
</mask>
<g mask="url(#mask0_3205_2724)">
<path d="M7.41093 20.8907L5.1983 22.7445C4.88372 23.0081 4.52203 23.0677 4.11323 22.9235C3.70441 22.7792 3.5 22.5195 3.5 22.1444V8.67402C3.5 8.20624 3.69342 7.81029 4.08026 7.48617C4.46711 7.16206 4.93968 7 5.49799 7H22.502C23.0603 7 23.5329 7.16206 23.9197 7.48617C24.3066 7.81029 24.5 8.20624 24.5 8.67402V19.2166C24.5 19.6844 24.3066 20.0804 23.9197 20.4045C23.5329 20.7286 23.0603 20.8907 22.502 20.8907H7.41093ZM5.9231 19.5016H22.502C22.587 19.5016 22.665 19.4719 22.7359 19.4126C22.8067 19.3532 22.8421 19.2879 22.8421 19.2166V8.67402C22.8421 8.60277 22.8067 8.53746 22.7359 8.47809C22.665 8.41873 22.587 8.38905 22.502 8.38905H5.49799C5.41296 8.38905 5.33501 8.41873 5.26414 8.47809C5.1933 8.53746 5.15787 8.60277 5.15787 8.67402V20.1428L5.9231 19.5016Z" fill="#2D2D39"/>
</g>
</svg>
