<svg width="44" height="44" viewBox="0 0 44 44" fill="none" xmlns="http://www.w3.org/2000/svg">
<mask id="mask0_3205_9618" style="mask-type:alpha" maskUnits="userSpaceOnUse" x="0" y="0" width="44" height="44">
<circle cx="22" cy="22" r="21.8362" fill="#D9D9D9" stroke="black" stroke-width="0.327697"/>
</mask>
<g mask="url(#mask0_3205_9618)">
<circle cx="22" cy="22" r="20.3277" fill="#FEF9EB" stroke="#F97A1F" stroke-width="0.655393"/>
<path d="M38 29.3929L6 30V28.2783L34.6153 28L38 29.3929Z" fill="#8470CB"/>
<path d="M38 29.1875H7V31.1875H38V29.1875Z" fill="#8063C6"/>
<path d="M6 28.1875L7 29.4004V31.1875L6 30.0609V28.1875Z" fill="#764EBD"/>
<path d="M12.4595 29.491H16.6135C16.3772 18.3432 29.536 19.2028 29.1999 29.491H33.3831V15.1841H12.4595V29.491Z" fill="#FC9A1A"/>
<path d="M12.4594 15.1841L11.2041 14.2303V27.9479L12.4594 29.491V15.1841Z" fill="#E67F0E"/>
<path d="M12.4594 15.1841H33.3815L31.4464 14.2303H11.2041L12.4594 15.1841Z" fill="#ED8818"/>
<path d="M32.028 9.56765H27.208V15.2114H32.028V9.56765Z" fill="#3E51B3"/>
<path d="M27.2077 15.2114L26.2363 14.2303V8.8204L27.2077 9.56765V15.2114Z" fill="#2E459E"/>
<path d="M32.4654 9.59496L29.2107 6L26.5405 9.59496H32.4654Z" fill="#2EDD43"/>
<path d="M25.7334 9.21223L26.5406 9.59496L29.2107 6L25.7334 9.21223Z" fill="#2DD139"/>
<path d="M27.5613 28.2608L29.1986 29.491C29.4948 27.1111 28.0539 23.1774 25.8687 22.3376C27.1393 22.8251 27.816 26.2165 27.5597 28.2608H27.5613Z" fill="#E67F0E"/>
<path d="M17.732 11.1077H13.6133V15.1841H17.732V11.1077Z" fill="#FFCC31"/>
<path d="M13.6133 15.1841L12.9136 14.2303V10.5731L13.6133 11.1077V15.1841Z" fill="#FCCD3F"/>
<path d="M16.6456 10.5731L17.7336 11.1077H13.6133L12.9136 10.5731H16.6456Z" fill="#FCD85B"/>
<path d="M17.732 11.1077H13.6133V15.1841H17.732V11.1077Z" fill="#FFE267"/>
<path d="M12.4576 25.407H8.33887V29.4834H12.4576V25.407Z" fill="#FFCC31"/>
<path d="M8.33941 29.4834L7.63965 28.5296V24.8724L8.33941 25.407V29.4834Z" fill="#FCCD3F"/>
<path d="M11.3717 24.8724L12.4597 25.407H8.33941L7.63965 24.8724H11.3717Z" fill="#FCD85B"/>
<path d="M12.4576 25.407H8.33887V29.4834H12.4576V25.407Z" fill="#FFE267"/>
<path d="M12.4596 22.9071H9.64062V25.3705H12.4596V22.9071Z" fill="#FFCC31"/>
<path d="M9.6404 25.3705L9.16162 24.7949V22.5836L9.6404 22.9071V25.3705Z" fill="#2E459E"/>
<path d="M11.7151 22.5836L12.4594 22.9071H9.6404L9.16162 22.5836H11.7151Z" fill="#3E51B3"/>
<path d="M12.4596 22.9071H9.64062V25.3705H12.4596V22.9071Z" fill="#4960B7"/>
</g>
</svg>
