<svg width="106" height="32" viewBox="0 0 106 32" fill="none" xmlns="http://www.w3.org/2000/svg">
<path d="M17.5986 12.5C17.5986 11.9477 18.0463 11.5 18.5986 11.5H19.5986C20.1509 11.5 20.5986 11.9477 20.5986 12.5V20.5C20.5986 21.0523 20.1509 21.5 19.5986 21.5H18.5986C18.0463 21.5 17.5986 21.0523 17.5986 20.5V12.5Z" fill="white"/>
<path d="M22.5986 10.5C22.5986 9.94772 23.0463 9.5 23.5986 9.5H24.5986C25.1509 9.5 25.5986 9.94772 25.5986 10.5V20.5C25.5986 21.0523 25.1509 21.5 24.5986 21.5H23.5986C23.0463 21.5 22.5986 21.0523 22.5986 20.5V10.5Z" fill="white"/>
<path d="M12.5986 16C12.5986 15.4477 13.0463 15 13.5986 15H14.5986C15.1509 15 15.5986 15.4477 15.5986 16V20.5C15.5986 21.0523 15.1509 21.5 14.5986 21.5H13.5986C13.0463 21.5 12.5986 21.0523 12.5986 20.5V16Z" fill="white"/>
<path d="M7.59863 18.5C7.59863 17.9477 8.04635 17.5 8.59863 17.5H9.59863C10.1509 17.5 10.5986 17.9477 10.5986 18.5V20.5C10.5986 21.0523 10.1509 21.5 9.59863 21.5H8.59863C8.04635 21.5 7.59863 21.0523 7.59863 20.5V18.5Z" fill="white"/>
<path d="M39.7139 18.4189C41.1336 17.1934 43.213 17.1935 44.6328 18.4189C44.7042 18.4849 44.7461 18.5785 44.748 18.6768C44.75 18.775 44.7122 18.8696 44.6436 18.9385L42.4199 21.2285C42.3548 21.2958 42.2664 21.3339 42.1738 21.334C42.0811 21.334 41.9919 21.2958 41.9268 21.2285L39.7031 18.9385C39.6345 18.8696 39.5966 18.775 39.5986 18.6768C39.6007 18.5785 39.6424 18.4848 39.7139 18.4189ZM36.708 15.6787C39.7671 12.7741 44.5044 12.7741 47.5635 15.6787C47.6325 15.7468 47.6719 15.8405 47.6729 15.9385C47.6737 16.0364 47.636 16.1308 47.5684 16.2002L46.2832 17.5254C46.1507 17.6607 45.9366 17.664 45.8008 17.5322C44.7963 16.6038 43.4899 16.0898 42.1348 16.0898C40.7804 16.0904 39.4746 16.6043 38.4707 17.5322C38.3348 17.664 38.1207 17.6607 37.9883 17.5254L36.7031 16.2002C36.6354 16.1308 36.5978 16.0364 36.5986 15.9385C36.5995 15.8405 36.639 15.7468 36.708 15.6787ZM33.7061 12.9424C38.3979 8.35277 45.7993 8.35284 50.4912 12.9424C50.5591 13.0106 50.5981 13.1039 50.5986 13.2012C50.5991 13.2983 50.5612 13.392 50.4941 13.4609L49.208 14.7861C49.0755 14.9221 48.8602 14.9238 48.7256 14.79C46.938 13.0553 44.5652 12.088 42.0986 12.0879C39.632 12.088 37.2594 13.0553 35.4717 14.79C35.3371 14.9239 35.1217 14.9223 34.9893 14.7861L33.7021 13.4609C33.6352 13.392 33.5981 13.2982 33.5986 13.2012C33.5993 13.1039 33.6381 13.0105 33.7061 12.9424Z" fill="white"/>
<path opacity="0.35" d="M62.9795 10H79.9795C81.9125 10 83.4795 11.567 83.4795 13.5V18.5C83.4795 20.433 81.9125 22 79.9795 22H62.9795C61.0465 22 59.4795 20.433 59.4795 18.5V13.5C59.4795 11.567 61.0465 10 62.9795 10Z" stroke="white"/>
<path opacity="0.4" d="M84.9795 14.5V18.7203C85.8286 18.3629 86.3807 17.5314 86.3807 16.6102C86.3807 15.6889 85.8286 14.8574 84.9795 14.5Z" fill="white"/>
<path d="M60.9795 13.5C60.9795 12.3954 61.8749 11.5 62.9795 11.5H79.9795C81.0841 11.5 81.9795 12.3954 81.9795 13.5V18.5C81.9795 19.6046 81.0841 20.5 79.9795 20.5H62.9795C61.8749 20.5 60.9795 19.6046 60.9795 18.5V13.5Z" fill="white"/>
</svg>
