<svg width="67" height="67" viewBox="0 0 67 67" fill="none" xmlns="http://www.w3.org/2000/svg">
<path d="M33.5 1.71387C51.0548 1.71387 65.2861 15.9452 65.2861 33.5C65.2861 51.0548 51.0548 65.2861 33.5 65.2861C15.9452 65.2861 1.71387 51.0548 1.71387 33.5C1.71387 15.9452 15.9452 1.71387 33.5 1.71387Z" fill="#F4EDFC"/>
<path d="M33.5 1.71387C51.0548 1.71387 65.2861 15.9452 65.2861 33.5C65.2861 51.0548 51.0548 65.2861 33.5 65.2861C15.9452 65.2861 1.71387 51.0548 1.71387 33.5C1.71387 15.9452 15.9452 1.71387 33.5 1.71387Z" stroke="white" stroke-width="3.42857"/>
<path fill-rule="evenodd" clip-rule="evenodd" d="M13 47.2125L13 25.3504L26.648 15.4493L39.8278 26.591L39.8278 51.5662L13 47.2125Z" fill="#E2D3F9"/>
<path d="M39.8278 12.5L26.648 15.4493L39.8278 26.591L53.6163 23.1502L39.8278 12.5Z" fill="#E2D3F9"/>
<path d="M53.6163 47.2125L53.6163 23.1502L39.8278 26.591L39.8278 51.5662L53.6163 47.2125Z" fill="#E2D3F9"/>
<path d="M26.648 15.4493L13 25.3504L13 47.2125L39.8278 51.5662L53.6163 47.2125L53.6163 23.1502L39.8278 12.5L26.648 15.4493ZM53.6163 23.1502L39.8278 26.591M39.8278 51.5662L39.8278 26.591M39.8278 26.591L26.648 15.4493" stroke="#32312E" stroke-width="1.64604" stroke-linecap="round"/>
<path d="M19.2876 33.8212C19.3292 33.121 19.9306 32.5871 20.6308 32.6287C21.331 32.6704 21.8648 33.2717 21.8232 33.9718C21.7816 34.672 21.1803 35.206 20.4801 35.1644C19.7799 35.1228 19.246 34.5214 19.2876 33.8212Z" fill="#32312E"/>
<path fill-rule="evenodd" clip-rule="evenodd" d="M31.2058 32.9166C30.5057 32.875 29.9043 33.4089 29.8627 34.1091C29.8211 34.8093 30.355 35.4106 31.0552 35.4522C31.7554 35.4938 32.3567 34.9599 32.3983 34.2597C32.4399 33.5596 31.906 32.9582 31.2058 32.9166Z" fill="#32312E"/>
<path d="M22.763 37.8034C22.6652 37.3762 22.2396 37.109 21.8123 37.2068C21.385 37.3046 21.1179 37.7302 21.2157 38.1575L21.9893 37.9805L22.763 37.8034ZM30.2279 38.6326C30.3428 38.2096 30.0931 37.7735 29.6701 37.6586C29.2471 37.5437 28.8111 37.7934 28.6961 38.2164L29.462 38.4245L30.2279 38.6326ZM21.9893 37.9805L21.2157 38.1575C21.7564 40.5205 23.6806 41.8278 25.6196 41.9495C27.5699 42.0719 29.587 40.9918 30.2279 38.6326L29.462 38.4245L28.6961 38.2164C28.2767 39.7602 27.0124 40.4465 25.719 40.3653C24.4142 40.2834 23.1323 39.4171 22.763 37.8034L21.9893 37.9805Z" fill="#32312E"/>
<path d="M44.5662 50.1554C44.8067 51.7781 45.5281 52.3392 46.2495 52.4995C48.4136 52.9804 49.3755 50.5758 49.8564 48.4808C50.3374 46.4879 50.8741 44.5641 50.3374 41.1977C49.6311 36.7678 47.6923 34.9456 46.009 36.1479C44.6964 37.0855 45.7685 39.274 45.7685 42.6405C45.7685 46.007 44.3258 47.2601 44.5662 50.1554Z" fill="white"/>
<path d="M44.5662 50.1554C44.8067 51.7781 45.5281 52.3392 46.2495 52.4995C48.4136 52.9804 49.3755 50.5758 49.8564 48.4808C50.3374 46.4879 50.8741 44.5641 50.3374 41.1977C49.6311 36.7678 47.6923 34.9456 46.009 36.1479C44.6964 37.0855 45.7685 39.274 45.7685 42.6405C45.7685 46.007 44.3258 47.2601 44.5662 50.1554Z" stroke="#32312E" stroke-width="1.65419" stroke-linecap="round"/>
</svg>
