<svg width="14" height="14" viewBox="0 0 14 14" fill="none" xmlns="http://www.w3.org/2000/svg">
<mask id="mask0_0_21" style="mask-type:alpha" maskUnits="userSpaceOnUse" x="0" y="0" width="14" height="14">
<rect width="14" height="14" fill="#D9D9D9"/>
</mask>
<g mask="url(#mask0_0_21)">
<path d="M2.36101 10.2869C2.23804 10.2869 2.12976 10.2401 2.0362 10.1465C1.94262 10.0528 1.89583 9.94403 1.89583 9.82002C1.89583 9.69601 1.94262 9.58726 2.0362 9.49378C2.12976 9.4003 2.23804 9.35356 2.36101 9.35356H11.639C11.7619 9.35356 11.8702 9.40037 11.9638 9.49398C12.0574 9.58759 12.1041 9.6964 12.1041 9.82042C12.1041 9.94442 12.0574 10.0532 11.9638 10.1466C11.8702 10.2401 11.7619 10.2869 11.639 10.2869H2.36101ZM2.36101 7.46668C2.23804 7.46668 2.12976 7.41988 2.0362 7.32627C1.94262 7.23266 1.89583 7.12385 1.89583 6.99984C1.89583 6.87582 1.94262 6.76708 2.0362 6.6736C2.12976 6.58012 2.23804 6.53338 2.36101 6.53338H11.639C11.7619 6.53338 11.8702 6.58018 11.9638 6.67379C12.0574 6.7674 12.1041 6.87621 12.1041 7.00022C12.1041 7.12424 12.0574 7.23298 11.9638 7.32646C11.8702 7.41994 11.7619 7.46668 11.639 7.46668H2.36101ZM2.36101 4.6465C2.23804 4.6465 2.12976 4.59969 2.0362 4.50608C1.94262 4.41247 1.89583 4.30366 1.89583 4.17964C1.89583 4.05563 1.94262 3.94689 2.0362 3.85341C2.12976 3.75992 2.23804 3.71318 2.36101 3.71318H11.639C11.7619 3.71318 11.8702 3.75999 11.9638 3.8536C12.0574 3.94722 12.1041 4.05603 12.1041 4.18004C12.1041 4.30405 12.0574 4.4128 11.9638 4.50628C11.8702 4.59976 11.7619 4.6465 11.639 4.6465H2.36101Z" fill="#2D2D39"/>
</g>
</svg>
