<svg width="18" height="18" viewBox="0 0 18 18" fill="none" xmlns="http://www.w3.org/2000/svg">
<mask id="mask0_3206_6778" style="mask-type:alpha" maskUnits="userSpaceOnUse" x="0" y="0" width="18" height="18">
<rect width="18" height="18" fill="#D9D9D9"/>
</mask>
<g mask="url(#mask0_3206_6778)">
<path d="M9.01871 12.8439C9.89351 12.8439 10.6309 12.5439 11.2309 11.9439C11.8309 11.3439 12.1309 10.6062 12.1309 9.73081C12.1309 8.85601 11.8309 8.11861 11.2309 7.51861C10.6309 6.91861 9.89351 6.61861 9.01871 6.61861C8.13131 6.61861 7.39061 6.91861 6.79661 7.51861C6.20261 8.11861 5.90561 8.85601 5.90561 9.73081C5.90561 10.6062 6.20261 11.3439 6.79661 11.9439C7.39061 12.5439 8.13131 12.8439 9.01871 12.8439ZM9.01871 11.6442C8.46851 11.6442 8.01221 11.4597 7.64981 11.0907C7.28741 10.7217 7.10621 10.2684 7.10621 9.73081C7.10621 9.19381 7.28741 8.74081 7.64981 8.37181C8.01221 8.00341 8.46851 7.8192 9.01871 7.8192C9.55631 7.8192 10.0093 8.00341 10.3777 8.37181C10.7467 8.74081 10.9312 9.19381 10.9312 9.73081C10.9312 10.2684 10.7467 10.7217 10.3777 11.0907C10.0093 11.4597 9.55631 11.6442 9.01871 11.6442ZM3.30011 15.3747C2.89991 15.3747 2.56241 15.2373 2.28761 14.9625C2.01221 14.6877 1.87451 14.3502 1.87451 13.95V5.5314C1.87451 5.13121 2.01221 4.7937 2.28761 4.51891C2.56241 4.24351 2.89991 4.1058 3.30011 4.1058H5.51231L6.88121 2.62531H11.0995L12.5062 4.1058H14.6995C15.0997 4.1058 15.4372 4.24351 15.712 4.51891C15.9874 4.7937 16.1251 5.13121 16.1251 5.5314V13.95C16.1251 14.3502 15.9874 14.6877 15.712 14.9625C15.4372 15.2373 15.0997 15.3747 14.6995 15.3747H3.30011ZM14.6995 14.175C14.7625 14.175 14.8156 14.1531 14.8588 14.1093C14.9026 14.0655 14.9245 14.0124 14.9245 13.95V5.5314C14.9245 5.469 14.9026 5.4159 14.8588 5.3721C14.8156 5.32831 14.7625 5.30641 14.6995 5.30641H11.9995L10.5937 3.82501H7.42481L6.01901 5.30641H3.30011C3.23711 5.30641 3.18401 5.32831 3.14081 5.3721C3.09701 5.4159 3.07511 5.469 3.07511 5.5314V13.95C3.07511 14.0124 3.09701 14.0655 3.14081 14.1093C3.18401 14.1531 3.23711 14.175 3.30011 14.175H14.6995Z" fill="#2D2D39"/>
</g>
</svg>
