<svg width="18" height="18" viewBox="0 0 18 18" fill="none" xmlns="http://www.w3.org/2000/svg">
<mask id="mask0_3206_6936" style="mask-type:alpha" maskUnits="userSpaceOnUse" x="0" y="0" width="18" height="18">
<rect width="18" height="18" fill="#D9D9D9"/>
</mask>
<g mask="url(#mask0_3206_6936)">
<path d="M9.01871 12.8438C9.89351 12.8438 10.6309 12.5438 11.2309 11.9438C11.8309 11.3438 12.1309 10.6061 12.1309 9.73074C12.1309 8.85594 11.8309 8.11854 11.2309 7.51854C10.6309 6.91854 9.89351 6.61854 9.01871 6.61854C8.13131 6.61854 7.39061 6.91854 6.79661 7.51854C6.20261 8.11854 5.90561 8.85594 5.90561 9.73074C5.90561 10.6061 6.20261 11.3438 6.79661 11.9438C7.39061 12.5438 8.13131 12.8438 9.01871 12.8438ZM9.01871 11.6441C8.46851 11.6441 8.01221 11.4596 7.64981 11.0906C7.28741 10.7216 7.10621 10.2683 7.10621 9.73074C7.10621 9.19374 7.28741 8.74074 7.64981 8.37174C8.01221 8.00334 8.46851 7.81914 9.01871 7.81914C9.55631 7.81914 10.0093 8.00334 10.3777 8.37174C10.7467 8.74074 10.9312 9.19374 10.9312 9.73074C10.9312 10.2683 10.7467 10.7216 10.3777 11.0906C10.0093 11.4596 9.55631 11.6441 9.01871 11.6441ZM3.30011 15.3746C2.89991 15.3746 2.56241 15.2372 2.28761 14.9624C2.01221 14.6876 1.87451 14.3501 1.87451 13.9499V5.53134C1.87451 5.13114 2.01221 4.79364 2.28761 4.51884C2.56241 4.24344 2.89991 4.10574 3.30011 4.10574H5.51231L6.88121 2.62524H11.0995L12.5062 4.10574H14.6995C15.0997 4.10574 15.4372 4.24344 15.712 4.51884C15.9874 4.79364 16.1251 5.13114 16.1251 5.53134V13.9499C16.1251 14.3501 15.9874 14.6876 15.712 14.9624C15.4372 15.2372 15.0997 15.3746 14.6995 15.3746H3.30011ZM14.6995 14.1749C14.7625 14.1749 14.8156 14.153 14.8588 14.1092C14.9026 14.0654 14.9245 14.0123 14.9245 13.9499V5.53134C14.9245 5.46894 14.9026 5.41584 14.8588 5.37204C14.8156 5.32824 14.7625 5.30634 14.6995 5.30634H11.9995L10.5937 3.82494H7.42481L6.01901 5.30634H3.30011C3.23711 5.30634 3.18401 5.32824 3.14081 5.37204C3.09701 5.41584 3.07511 5.46894 3.07511 5.53134V13.9499C3.07511 14.0123 3.09701 14.0654 3.14081 14.1092C3.18401 14.153 3.23711 14.1749 3.30011 14.1749H14.6995Z" fill="#2D2D39"/>
</g>
</svg>
